<mxfile host="app.diagrams.net" modified="2022-01-21T01:08:54.577Z" agent="5.0 (Windows NT 10.0; Win64; x64) AppleWebKit/537.36 (KHTML, like Gecko) Chrome/97.0.4692.71 Safari/537.36 Edg/97.0.1072.62" etag="nduTKLnRntHaldzjNjWb" version="16.4.2" type="github">
  <diagram id="bbJg_QfLum7vLdO-XY5R" name="Page-1">
    <mxGraphModel dx="982" dy="546" grid="1" gridSize="10" guides="1" tooltips="1" connect="1" arrows="1" fold="1" page="1" pageScale="1" pageWidth="827" pageHeight="1169" math="0" shadow="0">
      <root>
        <mxCell id="0" />
        <mxCell id="1" parent="0" />
        <mxCell id="NHq-CDQ5qeiMFSTUF5Jq-2" value="ALU" style="rounded=1;whiteSpace=wrap;html=1;" vertex="1" parent="1">
          <mxGeometry x="400" y="490" width="60" height="80" as="geometry" />
        </mxCell>
        <mxCell id="NHq-CDQ5qeiMFSTUF5Jq-9" style="edgeStyle=orthogonalEdgeStyle;rounded=0;orthogonalLoop=1;jettySize=auto;html=1;exitX=1;exitY=0.5;exitDx=0;exitDy=0;entryX=0;entryY=0.5;entryDx=0;entryDy=0;" edge="1" parent="1" source="NHq-CDQ5qeiMFSTUF5Jq-3" target="NHq-CDQ5qeiMFSTUF5Jq-7">
          <mxGeometry relative="1" as="geometry" />
        </mxCell>
        <mxCell id="NHq-CDQ5qeiMFSTUF5Jq-3" value="PC" style="whiteSpace=wrap;html=1;" vertex="1" parent="1">
          <mxGeometry x="100" y="510" width="20" height="40" as="geometry" />
        </mxCell>
        <mxCell id="NHq-CDQ5qeiMFSTUF5Jq-4" value="RAM" style="rounded=1;whiteSpace=wrap;html=1;" vertex="1" parent="1">
          <mxGeometry x="520" y="485" width="60" height="90" as="geometry" />
        </mxCell>
        <mxCell id="NHq-CDQ5qeiMFSTUF5Jq-5" value="mux" style="rounded=1;whiteSpace=wrap;html=1;" vertex="1" parent="1">
          <mxGeometry x="630" y="500" width="30" height="60" as="geometry" />
        </mxCell>
        <mxCell id="NHq-CDQ5qeiMFSTUF5Jq-11" style="edgeStyle=orthogonalEdgeStyle;rounded=0;orthogonalLoop=1;jettySize=auto;html=1;exitX=1;exitY=0.5;exitDx=0;exitDy=0;entryX=0;entryY=0.5;entryDx=0;entryDy=0;" edge="1" parent="1" source="NHq-CDQ5qeiMFSTUF5Jq-7" target="NHq-CDQ5qeiMFSTUF5Jq-10">
          <mxGeometry relative="1" as="geometry" />
        </mxCell>
        <mxCell id="NHq-CDQ5qeiMFSTUF5Jq-7" value="ROM" style="rounded=1;whiteSpace=wrap;html=1;" vertex="1" parent="1">
          <mxGeometry x="160" y="500" width="30" height="60" as="geometry" />
        </mxCell>
        <mxCell id="NHq-CDQ5qeiMFSTUF5Jq-12" style="edgeStyle=orthogonalEdgeStyle;rounded=0;orthogonalLoop=1;jettySize=auto;html=1;exitX=1;exitY=0.5;exitDx=0;exitDy=0;entryX=0;entryY=0.5;entryDx=0;entryDy=0;" edge="1" parent="1" source="NHq-CDQ5qeiMFSTUF5Jq-10" target="NHq-CDQ5qeiMFSTUF5Jq-2">
          <mxGeometry relative="1" as="geometry" />
        </mxCell>
        <mxCell id="NHq-CDQ5qeiMFSTUF5Jq-10" value="Reg" style="rounded=1;whiteSpace=wrap;html=1;" vertex="1" parent="1">
          <mxGeometry x="270" y="460" width="50" height="140" as="geometry" />
        </mxCell>
        <mxCell id="NHq-CDQ5qeiMFSTUF5Jq-13" value="" style="endArrow=none;dashed=1;html=1;dashPattern=1 3;strokeWidth=2;rounded=0;" edge="1" parent="1">
          <mxGeometry width="50" height="50" relative="1" as="geometry">
            <mxPoint x="360" y="680" as="sourcePoint" />
            <mxPoint x="360" y="400" as="targetPoint" />
          </mxGeometry>
        </mxCell>
        <mxCell id="NHq-CDQ5qeiMFSTUF5Jq-14" value="" style="endArrow=none;dashed=1;html=1;dashPattern=1 3;strokeWidth=2;rounded=0;" edge="1" parent="1">
          <mxGeometry width="50" height="50" relative="1" as="geometry">
            <mxPoint x="490" y="680" as="sourcePoint" />
            <mxPoint x="490" y="400" as="targetPoint" />
          </mxGeometry>
        </mxCell>
        <mxCell id="NHq-CDQ5qeiMFSTUF5Jq-15" value="" style="endArrow=none;dashed=1;html=1;dashPattern=1 3;strokeWidth=2;rounded=0;" edge="1" parent="1">
          <mxGeometry width="50" height="50" relative="1" as="geometry">
            <mxPoint x="610" y="680" as="sourcePoint" />
            <mxPoint x="610" y="400" as="targetPoint" />
          </mxGeometry>
        </mxCell>
        <mxCell id="NHq-CDQ5qeiMFSTUF5Jq-16" value="" style="endArrow=none;dashed=1;html=1;dashPattern=1 3;strokeWidth=2;rounded=0;" edge="1" parent="1">
          <mxGeometry width="50" height="50" relative="1" as="geometry">
            <mxPoint x="220" y="680" as="sourcePoint" />
            <mxPoint x="220" y="400" as="targetPoint" />
          </mxGeometry>
        </mxCell>
        <mxCell id="NHq-CDQ5qeiMFSTUF5Jq-17" value="forwarding-data" style="rounded=1;whiteSpace=wrap;html=1;" vertex="1" parent="1">
          <mxGeometry x="370" y="680" width="120" height="60" as="geometry" />
        </mxCell>
        <mxCell id="NHq-CDQ5qeiMFSTUF5Jq-18" value="control" style="rounded=1;whiteSpace=wrap;html=1;" vertex="1" parent="1">
          <mxGeometry x="230" y="350" width="90" height="40" as="geometry" />
        </mxCell>
      </root>
    </mxGraphModel>
  </diagram>
</mxfile>
